<svg id="visual" viewBox="0 0 1000 400" width="1000" height="400" xmlns="http://www.w3.org/2000/svg" xmlns:xlink="http://www.w3.org/1999/xlink" version="1.1"><defs><linearGradient id="grad1_0" x1="60%" y1="100%" x2="100%" y2="0%"><stop offset="0%" stop-color="#001220" stop-opacity="1"></stop><stop offset="100%" stop-color="#001220" stop-opacity="1"></stop></linearGradient></defs><defs><linearGradient id="grad2_0" x1="0%" y1="100%" x2="40%" y2="0%"><stop offset="0%" stop-color="#001220" stop-opacity="1"></stop><stop offset="100%" stop-color="#001220" stop-opacity="1"></stop></linearGradient></defs><g transform="translate(1000, 400)"><path d="M-140 0C-139.7 -20 -139.3 -40.1 -129.3 -53.6C-119.4 -67.1 -99.8 -74.1 -86.3 -86.3C-72.8 -98.5 -65.4 -115.8 -52 -125.6C-38.7 -135.5 -19.3 -137.7 0 -140L0 0Z" fill="#8282f2"></path></g><g transform="translate(0, 0)"><path d="M140 0C127.3 14.4 114.6 28.9 108.1 44.8C101.5 60.7 101.1 78 93.3 93.3C85.5 108.6 70.4 121.9 53.6 129.3C36.8 136.8 18.4 138.4 0 140L0 0Z" fill="#8282f2"></path></g></svg>